<svg xmlns="http://www.w3.org/2000/svg" viewBox="0 0 480 295" fill="none">
  <ellipse cx="196" cy="26" rx="20" ry="12"
           stroke="white" stroke-width="5.5" fill="none"/>
  <ellipse cx="284" cy="26" rx="20" ry="12"
           stroke="white" stroke-width="5.5" fill="none"/>
  <rect x="174" y="20" width="132" height="13" rx="6.5" fill="white"/>
  <rect x="233.5" y="20" width="13" height="47"         fill="white"/>
  <path d="M148 65 L332 65 Q340 65 340 73 L340 178 Q340 186 332 186
           L148 186 Q140 186 140 178 L140 73 Q140 65 148 65 Z" fill="white"/>
  <line x1="140" y1="65" x2="240" y2="112"
        stroke="rgba(200,200,200,0.4)" stroke-width="1.8"/>
  <line x1="340" y1="65" x2="240" y2="112"
        stroke="rgba(200,200,200,0.4)" stroke-width="1.8"/>
  <circle cx="240" cy="110" r="9"   fill="rgba(0,0,0,0.15)"/>
  <circle cx="240" cy="110" r="5.5" fill="white"/>
  <text x="240" y="233"
        font-family="'Palatino Linotype','Book Antiqua',Palatino,Georgia,serif"
        font-size="62" font-weight="700"
        fill="white" text-anchor="middle" letter-spacing="10">TONOMI</text>
  <text x="245" y="262"
        font-family="'Gill Sans MT','Gill Sans',Optima,'Helvetica Neue',Arial,sans-serif"
        font-size="13.5" font-weight="400"
        fill="white" text-anchor="middle" letter-spacing="8">ACCESSOIRES</text>
</svg>
